HIERARCHY
ROOT Hips
{
	OFFSET 0.00000 0.00000 0.00000
	CHANNELS 6 Xposition Yposition Zposition Zrotation Yrotation Xrotation 
	JOINT LHipJoint
	{
		OFFSET 0 0 0
		CHANNELS 3 Zrotation Yrotation Xrotation
		JOINT LeftUpLeg
		{
			OFFSET 1.39187 -1.60231 0.69152
			CHANNELS 3 Zrotation Yrotation Xrotation
			JOINT LeftLeg
			{
				OFFSET 2.43314 -6.68499 0.00000
				CHANNELS 3 Zrotation Yrotation Xrotation
				JOINT LeftFoot
				{
					OFFSET 2.32059 -6.37578 0.00000
					CHANNELS 3 Zrotation Yrotation Xrotation
					JOINT LeftToeBase
					{
						OFFSET 0.23021 -0.63250 1.71305
						CHANNELS 3 Zrotation Yrotation Xrotation
						End Site
						{
							OFFSET 0.00000 -0.00000 0.91647
						}
					}
				}
			}
		}
	}
	JOINT RHipJoint
	{
		OFFSET 0 0 0
		CHANNELS 3 Zrotation Yrotation Xrotation
		JOINT RightUpLeg
		{
			OFFSET -1.19407 -1.60231 0.69152
			CHANNELS 3 Zrotation Yrotation Xrotation
			JOINT RightLeg
			{
				OFFSET -2.44411 -6.71513 0.00000
				CHANNELS 3 Zrotation Yrotation Xrotation
				JOINT RightFoot
				{
					OFFSET -2.31924 -6.37207 0.00000
					CHANNELS 3 Zrotation Yrotation Xrotation
					JOINT RightToeBase
					{
						OFFSET -0.19473 -0.53502 1.87724
						CHANNELS 3 Zrotation Yrotation Xrotation
						End Site
						{
							OFFSET -0.00000 -0.00000 0.98293
						}
					}
				}
			}
		}
	}
	JOINT LowerBack
	{
		OFFSET 0 0 0
		CHANNELS 3 Zrotation Yrotation Xrotation
		JOINT Spine
		{
			OFFSET -0.01120 1.87307 0.09613
			CHANNELS 3 Zrotation Yrotation Xrotation
			JOINT Spine1
			{
				OFFSET 0.01099 1.87818 0.04834
				CHANNELS 3 Zrotation Yrotation Xrotation
				JOINT Neck
				{
					OFFSET 0 0 0
					CHANNELS 3 Zrotation Yrotation Xrotation
					JOINT Neck1
					{
						OFFSET 0.01702 1.40324 -0.12579
						CHANNELS 3 Zrotation Yrotation Xrotation
						JOINT Head
						{
							OFFSET -0.04239 1.38587 -0.01614
							CHANNELS 3 Zrotation Yrotation Xrotation
							End Site
							{
								OFFSET -0.02510 1.47031 -0.00154
							}
						}
					}
				}
				JOINT LeftShoulder
				{
					OFFSET 0 0 0
					CHANNELS 3 Zrotation Yrotation Xrotation
					JOINT LeftArm
					{
						OFFSET 2.95699 0.62343 0.11653
						CHANNELS 3 Zrotation Yrotation Xrotation
						JOINT LeftForeArm
						{
							OFFSET 4.68382 -0.00000 -0.00000
							CHANNELS 3 Zrotation Yrotation Xrotation
							JOINT LeftHand
							{
								OFFSET 2.98124 -0.00000 -0.00000
								CHANNELS 3 Zrotation Yrotation Xrotation
								JOINT LeftFingerBase
								{
									OFFSET 0 0 0
									CHANNELS 3 Zrotation Yrotation Xrotation
									JOINT LeftHandIndex1
									{
										OFFSET 0.70759 -0.00000 0.00000
										CHANNELS 3 Zrotation Yrotation Xrotation
										End Site
										{
											OFFSET 0.57048 -0.00000 0.00000
										}
									}
								}
								JOINT LThumb
								{
									OFFSET 0 0 0
									CHANNELS 3 Zrotation Yrotation Xrotation
									End Site
									{
										OFFSET 0.57919 -0.00000 0.57919
									}
								}
							}
						}
					}
				}
				JOINT RightShoulder
				{
					OFFSET 0 0 0
					CHANNELS 3 Zrotation Yrotation Xrotation
					JOINT RightArm
					{
						OFFSET -2.99027 0.88714 -0.02793
						CHANNELS 3 Zrotation Yrotation Xrotation
						JOINT RightForeArm
						{
							OFFSET -4.75876 -0.00000 -0.00000
							CHANNELS 3 Zrotation Yrotation Xrotation
							JOINT RightHand
							{
								OFFSET -2.93293 -0.00000 -0.00000
								CHANNELS 3 Zrotation Yrotation Xrotation
								JOINT RightFingerBase
								{
									OFFSET 0 0 0
									CHANNELS 3 Zrotation Yrotation Xrotation
									JOINT RightHandIndex1
									{
										OFFSET -0.83175 -0.00000 0.00000
										CHANNELS 3 Zrotation Yrotation Xrotation
										End Site
										{
											OFFSET -0.67058 -0.00000 0.00000
										}
									}
								}
								JOINT RThumb
								{
									OFFSET 0 0 0
									CHANNELS 3 Zrotation Yrotation Xrotation
									End Site
									{
										OFFSET -0.68082 -0.00000 0.68082
									}
								}
							}
						}
					}
				}
			}
		}
	}
}
MOTION
Frames: 10
Frame Time: .0083333
-8.2273 27.3098 0.3568 0 0 0 0 0 0 -21 0 0 0 0 0 0 0 0 0 0 0 0 0 0 21 0 0 0 0 0 0 0 0 0 0 0 0 0 0 0 0 0 0 0 0 0 0 -16 0 0 21 0 0 11 0 0 0 -8 0 0 0 0 0 0 0 0 0 0 0 0 0 0 0 0 0 0 0 0 8 0 0 0 0 0 0 0 0 0 0 0 0 0 0 0 0 0
-8.2273 27.3098 0.3568 87.7246 88.6546 103.4750 0.0000 0.0000 0.0000 -18.0857 -19.8590 -18.6556 1.6322 8.0537 22.8774 0.6158 9.7343 -21.3988 1.4935 7.7201 21.8671 0.0000 0.0000 0.0000 17.0444 17.8517 -16.0623 -1.1609 -6.8403 19.2432 0.8421 -16.8048 -11.8388 -0.3331 3.7090 -10.2593 -5.7075 0.2693 -15.4920 -0.4439 1.5109 -5.3998 3.0288 0.9086 2.8108 -3.7202 -0.0724 4.4041 7.4876 -0.2382 2.6278 3.0453 -0.1326 0.0796 0.0000 0.0000 0.0000 -91.1546 4.0612 6.0906 9.3487 -15.7144 -1.2929 -0.0000 -0.0000 39.3556 5.8670 22.2885 2.2319 -7.1250 0.0000 -0.0000 -22.9845 50.8980 -3.4987 0.0000 0.0000 0.0000 93.4475 -1.7425 10.1618 -8.7710 14.7947 -1.1409 0.0000 0.0000 26.6740 -15.0041 10.4841 -2.7921 7.1250 -0.0000 -0.0000 8.5166 -19.1976 5.3011
-8.2277 27.3079 0.3527 98.0369 88.5279 113.8120 0.0000 0.0000 0.0000 -18.1892 -20.1326 -18.7098 1.6470 8.0885 22.9832 0.5886 9.8504 -21.2455 1.3650 7.3945 20.8896 0.0000 0.0000 0.0000 16.9127 17.9702 -16.1032 -1.1836 -6.9044 19.4325 0.8792 -17.1288 -11.9849 -0.3186 3.6285 -10.0338 -5.7466 0.2062 -15.5742 -0.5357 1.4431 -5.2843 2.9464 0.8651 2.9847 -3.4502 -0.1378 4.1134 7.2458 -0.3148 2.7350 2.9118 -0.1622 0.1683 0.0000 -0.0000 0.0000 -90.9828 3.9081 6.0566 9.3694 -15.7473 -1.2986 -0.0000 -0.0000 39.1241 5.8730 22.0901 2.2153 -7.1250 0.0000 -0.0000 -22.8760 50.7166 -3.3749 0.0000 -0.0000 0.0000 93.5055 -1.5709 10.2081 -8.7361 14.7389 -1.1321 0.0000 0.0000 26.5844 -14.9340 10.4100 -2.7591 7.1250 -0.0000 -0.0000 8.5676 -19.2774 5.3181
-8.2313 27.3076 0.3459 97.2754 88.5103 113.2030 0.0000 0.0000 0.0000 -18.1843 -20.3419 -18.9474 1.6644 8.1289 23.1062 0.5647 10.0224 -21.1775 1.2370 7.0527 19.8716 0.0000 0.0000 0.0000 16.7922 18.0454 -16.3630 -1.1967 -6.9412 19.5413 0.8774 -17.1130 -11.9778 -0.3091 3.5745 -9.8827 -5.7127 0.2507 -15.5760 -0.5908 1.5007 -5.3287 2.8785 0.8970 2.9362 -3.6059 -0.1458 4.0257 7.4092 -0.3332 2.7831 2.9969 -0.1703 0.2001 0.0000 0.0000 0.0000 -90.9002 3.9405 5.9264 9.4113 -15.8136 -1.3100 -0.0000 -0.0000 39.1269 5.8339 22.2311 2.2138 -7.1250 0.0000 -0.0000 -22.9855 50.8400 -3.4649 0.0000 0.0000 0.0000 93.4685 -1.6454 10.3733 -8.7598 14.7769 -1.1381 0.0000 0.0000 26.3024 -14.6770 10.1957 -2.6544 7.1250 -0.0000 -0.0000 8.7537 -19.5106 5.3903
-8.2342 27.3063 0.3369 95.7170 88.5173 111.7810 0.0000 0.0000 0.0000 -18.1803 -20.4691 -19.1942 1.6858 8.1783 23.2571 0.5641 10.0497 -21.1987 1.1261 6.7403 18.9482 0.0000 0.0000 0.0000 16.6961 18.0404 -16.6056 -1.2041 -6.9620 19.6027 0.8836 -17.1248 -11.8326 -0.3272 3.6767 -10.1688 -6.0374 0.1859 -16.7080 -0.3152 1.5287 -4.5923 3.3998 0.8399 4.3013 -4.2524 -0.0834 3.9216 7.6720 -0.2443 1.9090 3.2094 -0.1469 -0.0644 0.0000 0.0000 0.0000 -91.4903 2.6149 4.4606 9.2473 -15.5537 -1.2656 -0.0000 -0.0000 40.4306 6.0910 22.0031 2.2895 -7.1250 0.0000 -0.0000 -22.6285 50.6708 -3.3086 0.0000 0.0000 0.0000 92.9017 -0.4870 10.2964 -8.6448 14.5926 -1.1089 0.0000 0.0000 26.3673 -14.3018 10.1211 -2.5651 7.1250 -0.0000 -0.0000 9.0211 -19.6073 5.5393
-8.2285 27.3031 0.3302 100.9320 88.5221 116.7880 0.0000 0.0000 0.0000 -18.2916 -20.3984 -19.0561 1.7090 8.2316 23.4198 0.5780 9.9240 -21.2131 1.0712 6.5793 18.4749 0.0000 0.0000 0.0000 16.7846 18.0562 -16.2847 -1.2049 -6.9642 19.6092 0.9183 -17.3838 -11.8136 -0.3569 3.8382 -10.6220 -5.9756 0.1930 -16.2323 -0.3388 1.4925 -4.7289 3.3181 0.8391 3.9077 -4.2607 -0.1197 4.1111 7.7136 -0.2975 1.9482 3.2267 -0.1757 -0.0815 -0.0000 0.0000 0.0000 -91.5215 2.9248 3.6688 9.2060 -15.4881 -1.2546 -0.0000 -0.0000 40.9380 6.3154 21.6745 2.3407 -7.1250 0.0000 -0.0000 -22.2533 50.4027 -3.0968 -0.0000 0.0000 0.0000 92.9676 -0.9302 9.9503 -8.6254 14.5614 -1.1040 0.0000 0.0000 26.6321 -14.1916 10.1999 -2.5641 7.1250 -0.0000 -0.0000 9.0970 -19.5333 5.6024
-8.2301 27.3005 0.3167 90.7871 88.7575 106.7910 0.0000 0.0000 0.0000 -18.0952 -20.4934 -19.2972 1.7333 8.2869 23.5890 0.5665 10.2143 -21.3816 1.0472 6.5076 18.2644 0.0000 0.0000 0.0000 16.8588 18.1583 -16.4925 -1.2010 -6.9532 19.5768 0.8781 -17.0649 -11.7634 -0.3723 3.9192 -10.8495 -5.6342 0.3350 -16.0263 -0.3640 1.6148 -4.9995 3.1110 0.9230 3.5103 -4.1216 -0.1442 4.1679 7.5391 -0.3371 2.2364 3.1402 -0.1904 0.0028 0.0000 0.0000 0.0000 -91.4746 3.4712 3.8153 9.3453 -15.7091 -1.2920 -0.0000 -0.0000 40.2086 6.1658 21.8258 2.3000 -7.1250 0.0000 -0.0000 -22.4686 50.5191 -3.1962 0.0000 0.0000 0.0000 93.0460 -1.4924 9.8464 -8.6494 14.5999 -1.1101 0.0000 0.0000 26.8623 -14.3982 10.3740 -2.6468 7.1250 -0.0000 -0.0000 8.9468 -19.3449 5.5456
-8.2284 27.2979 0.3048 85.5191 88.8417 101.5000 0.0000 0.0000 0.0000 -18.0825 -20.5791 -19.2891 1.7576 8.3418 23.7572 0.5902 10.2908 -21.6833 1.0416 6.4908 18.2153 0.0000 0.0000 0.0000 16.9003 18.1918 -16.4401 -1.1920 -6.9281 19.5024 0.8751 -17.0213 -11.6783 -0.3676 3.8946 -10.7804 -5.4606 0.4472 -15.6253 -0.4095 1.7129 -5.2609 2.9665 0.9954 3.0177 -3.7398 -0.2725 4.0236 7.0248 -0.5127 2.8484 2.8932 -0.2627 0.2315 0.0000 -0.0000 0.0000 -91.3865 4.1782 4.2802 9.5501 -16.0327 -1.3480 -0.0000 -0.0000 39.2283 5.9452 21.9653 2.2307 -7.1250 0.0000 -0.0000 -22.7447 50.6131 -3.2937 0.0000 -0.0000 0.0000 93.0961 -2.0880 9.8025 -8.6834 14.6544 -1.1187 0.0000 0.0000 26.8774 -14.5510 10.4561 -2.6970 7.1250 -0.0000 -0.0000 8.8370 -19.2526 5.4943
-8.2265 27.2967 0.2930 82.8319 88.9306 98.7666 0.0000 0.0000 0.0000 -18.0886 -20.6016 -19.2510 1.7798 8.3915 23.9096 0.6477 10.0409 -21.9877 1.0650 6.5609 18.4208 0.0000 0.0000 0.0000 16.9785 18.1005 -16.3727 -1.1811 -6.8973 19.4114 0.8635 -16.9255 -11.6548 -0.3464 3.7816 -10.4630 -5.2716 0.5719 -15.5438 -0.4685 1.8455 -5.2802 2.8179 1.0621 2.9511 -3.5565 -0.3888 3.9662 6.7954 -0.6671 3.0951 2.7823 -0.3334 0.3272 -0.0000 -0.0000 0.0000 -91.2794 4.4346 4.4912 9.6422 -16.1780 -1.3736 -0.0000 -0.0000 38.6487 5.8314 21.9354 2.1849 -7.1250 0.0000 -0.0000 -22.8350 50.5677 -3.2816 -0.0000 -0.0000 0.0000 93.1397 -2.2573 9.8600 -8.7169 14.7080 -1.1271 0.0000 0.0000 26.6316 -14.5536 10.2313 -2.6403 7.1250 -0.0000 -0.0000 8.8402 -19.4812 5.4507
-8.2242 27.2957 0.2835 76.3591 89.0836 92.2869 0.0000 0.0000 0.0000 -17.9757 -20.5692 -19.2587 1.7926 8.4201 23.9975 0.7279 9.5916 -22.3168 1.0356 6.4726 18.1621 0.0000 0.0000 0.0000 17.1383 18.0497 -16.3584 -1.1744 -6.8784 19.3557 0.8402 -16.7533 -11.6955 -0.3261 3.6706 -10.1517 -5.0708 0.6937 -15.5740 -0.4613 1.9765 -5.2626 2.7360 1.1243 2.9820 -4.0286 -0.3423 4.2912 7.2890 -0.6218 2.8395 3.0401 -0.3234 0.1904 0.0000 -0.0000 0.0000 -91.2378 4.5849 4.5276 9.6555 -16.1989 -1.3773 -0.0000 -0.0000 38.3052 5.8496 21.9371 2.1919 -7.1250 0.0000 -0.0000 -22.8190 50.5722 -3.2816 0.0000 -0.0000 0.0000 93.1285 -2.3298 9.9394 -8.7424 14.7490 -1.1336 0.0000 0.0000 26.4180 -14.5969 10.1649 -2.6314 7.1250 -0.0000 -0.0000 8.8111 -19.5465 5.4193
